<svg width="48" height="80" viewBox="0 0 48 80" fill="none" xmlns="http://www.w3.org/2000/svg">
<path d="M3.504 0C4.056 0 4.56 0.0839999 5.016 0.252C5.472 0.412 5.864 0.64 6.192 0.936C6.528 1.232 6.788 1.588 6.972 2.004C7.164 2.412 7.272 2.86 7.296 3.348C7.304 3.516 7.308 3.672 7.308 3.816C7.308 3.952 7.308 4.084 7.308 4.212C7.308 4.34 7.308 4.472 7.308 4.608C7.308 4.744 7.304 4.892 7.296 5.052C7.272 5.548 7.168 6 6.984 6.408C6.8 6.816 6.544 7.168 6.216 7.464C5.896 7.76 5.512 7.992 5.064 8.16C4.616 8.32 4.116 8.4 3.564 8.4H0.324C0.236 8.4 0.16 8.368 0.096 8.304C0.0319999 8.24 0 8.164 0 8.076V0.324C0 0.236 0.0319999 0.16 0.096 0.0960002C0.16 0.0320001 0.236 0 0.324 0H3.504ZM5.076 3.3C5.028 2.38 4.484 1.92 3.444 1.92H2.22V6.48H3.504C4.512 6.48 5.036 6.02 5.076 5.1C5.084 4.932 5.088 4.776 5.088 4.632C5.088 4.48 5.088 4.336 5.088 4.2C5.088 4.056 5.088 3.912 5.088 3.768C5.088 3.624 5.084 3.468 5.076 3.3Z" transform="translate(10.2954 52.6)" fill="#292A2E"/>
<path d="M17.6839 6.48C17.7719 6.48 17.8479 6.512 17.9119 6.576C17.9759 6.64 18.0079 6.716 18.0079 6.804V8.076C18.0079 8.164 17.9759 8.24 17.9119 8.304C17.8479 8.368 17.7719 8.4 17.6839 8.4H11.9959C11.9079 8.4 11.8319 8.368 11.7679 8.304C11.7039 8.24 11.6719 8.164 11.6719 8.076V0.324C11.6719 0.236 11.7039 0.16 11.7679 0.0960002C11.8319 0.0320001 11.9079 0 11.9959 0H17.5879C17.6759 0 17.7519 0.0320001 17.8159 0.0960002C17.8799 0.16 17.9119 0.236 17.9119 0.324V1.596C17.9119 1.684 17.8799 1.76 17.8159 1.824C17.7519 1.888 17.6759 1.92 17.5879 1.92H13.8919V3.216H17.3239C17.4119 3.216 17.4879 3.248 17.5519 3.312C17.6159 3.376 17.6479 3.452 17.6479 3.54V4.812C17.6479 4.9 17.6159 4.976 17.5519 5.04C17.4879 5.104 17.4119 5.136 17.3239 5.136H13.8919V6.48H17.6839Z" transform="translate(10.2954 52.6)" fill="#292A2E"/>
<path d="M27.8428 8.4C27.7068 8.4 27.5948 8.364 27.5068 8.292C27.4268 8.22 27.3748 8.164 27.3508 8.124L24.6028 4.02V8.076C24.6028 8.164 24.5708 8.24 24.5068 8.304C24.4428 8.368 24.3668 8.4 24.2788 8.4H22.7068C22.6188 8.4 22.5428 8.368 22.4788 8.304C22.4148 8.24 22.3828 8.164 22.3828 8.076V0.324C22.3828 0.236 22.4148 0.16 22.4788 0.0960002C22.5428 0.0320001 22.6188 0 22.7068 0H23.9548C24.0908 0 24.1988 0.036 24.2788 0.108C24.3668 0.18 24.4228 0.236 24.4468 0.276L27.1948 4.38V0.324C27.1948 0.236 27.2268 0.16 27.2908 0.0960002C27.3548 0.0320001 27.4308 0 27.5188 0H29.0908C29.1788 0 29.2548 0.0320001 29.3188 0.0960002C29.3828 0.16 29.4148 0.236 29.4148 0.324V8.076C29.4148 8.164 29.3828 8.24 29.3188 8.304C29.2548 8.368 29.1788 8.4 29.0908 8.4H27.8428Z" transform="translate(10.2954 52.6)" fill="#292A2E"/>
<path d="M6.23156 18.48C6.31956 18.48 6.39556 18.512 6.45956 18.576C6.52356 18.64 6.55556 18.716 6.55556 18.804V20.076C6.55556 20.164 6.52356 20.24 6.45956 20.304C6.39556 20.368 6.31956 20.4 6.23156 20.4H0.675563C0.587563 20.4 0.511562 20.368 0.447562 20.304C0.383562 20.24 0.351562 20.164 0.351562 20.076V12.324C0.351562 12.236 0.383562 12.16 0.447562 12.096C0.511562 12.032 0.587563 12 0.675563 12H2.24756C2.33556 12 2.41156 12.032 2.47556 12.096C2.53956 12.16 2.57156 12.236 2.57156 12.324V18.48H6.23156Z" transform="translate(10.2954 52.6)" fill="#292A2E"/>
<path d="M15.022 12C15.182 12 15.302 12.044 15.382 12.132C15.47 12.22 15.53 12.308 15.562 12.396L18.178 19.956C18.21 20.036 18.226 20.096 18.226 20.136C18.226 20.208 18.198 20.272 18.142 20.328C18.094 20.376 18.034 20.4 17.962 20.4H16.45C16.29 20.4 16.174 20.368 16.102 20.304C16.038 20.232 15.998 20.164 15.982 20.1L15.646 19.104H12.454L12.118 20.1C12.102 20.164 12.058 20.232 11.986 20.304C11.922 20.368 11.81 20.4 11.65 20.4H10.138C10.066 20.4 10.002 20.376 9.94603 20.328C9.89803 20.272 9.87403 20.208 9.87403 20.136C9.87403 20.096 9.89003 20.036 9.92203 19.956L12.538 12.396C12.57 12.308 12.626 12.22 12.706 12.132C12.794 12.044 12.918 12 13.078 12H15.022ZM13.078 17.244H15.022L14.05 14.364L13.078 17.244Z" transform="translate(10.2954 52.6)" fill="#292A2E"/>
<path d="M22.5193 20.4C22.4313 20.4 22.3553 20.368 22.2913 20.304C22.2273 20.24 22.1953 20.164 22.1953 20.076V12.324C22.1953 12.236 22.2273 12.16 22.2913 12.096C22.3553 12.032 22.4313 12 22.5193 12H26.3833C26.9193 12 27.3713 12.076 27.7393 12.228C28.1073 12.372 28.3993 12.564 28.6153 12.804C28.8393 13.036 28.9993 13.304 29.0953 13.608C29.1913 13.904 29.2393 14.2 29.2393 14.496C29.2393 14.728 29.2113 14.932 29.1553 15.108C29.1073 15.276 29.0473 15.424 28.9753 15.552C28.9033 15.672 28.8273 15.772 28.7473 15.852C28.6753 15.924 28.6153 15.98 28.5673 16.02C28.8793 16.236 29.0953 16.488 29.2153 16.776C29.3433 17.056 29.4073 17.396 29.4073 17.796C29.4073 18.124 29.3593 18.444 29.2633 18.756C29.1673 19.068 29.0073 19.348 28.7833 19.596C28.5673 19.836 28.2833 20.032 27.9313 20.184C27.5793 20.328 27.1473 20.4 26.6353 20.4H22.5193ZM27.0073 14.544C27.0073 14.336 26.9433 14.172 26.8153 14.052C26.6953 13.924 26.5153 13.86 26.2753 13.86H24.4153V15.228H26.2753C26.5153 15.228 26.6953 15.168 26.8153 15.048C26.9433 14.92 27.0073 14.752 27.0073 14.544ZM24.4153 18.54H26.3953C26.6353 18.54 26.8273 18.472 26.9713 18.336C27.1153 18.192 27.1873 18.016 27.1873 17.808C27.1873 17.6 27.1153 17.428 26.9713 17.292C26.8273 17.148 26.6353 17.076 26.3953 17.076H24.4153V18.54Z" transform="translate(10.2954 52.6)" fill="#292A2E"/>
<path fill-rule="evenodd" clip-rule="evenodd" d="M17.3205 2.3094L2 11.1547V28.8453L17.3205 37.6906L32.641 28.8453V11.1547L17.3205 2.3094ZM34.641 10L17.3205 0L0 10V30L17.3205 40L34.641 30V10Z" transform="translate(6.67969 4)" fill="#292A2E"/>
<path fill-rule="evenodd" clip-rule="evenodd" d="M27.7129 8L13.8564 0L0 8V24L13.8564 32L27.7129 24V8ZM13.8564 6L24.8564 12.7693V16L13.8564 9.23071L2.85645 16V12.7693L13.8564 6ZM13.8564 12L24.8564 18.7693V22L13.8564 15.2307L2.85645 22V18.7693L13.8564 12Z" transform="translate(10.1436 8)" fill="#292A2E"/>
</svg>
