<svg width="32" height="72" viewBox="0 0 32 72" fill="none" xmlns="http://www.w3.org/2000/svg">
<path d="M0 0H2.112V9.184H7.2V11.2H0V0Z" transform="translate(5.41356 41.8)" fill="#292A2E"/>
<path d="M0 4.576C0 3.12533 0.362667 2 1.088 1.2C1.824 0.4 2.83733 0 4.128 0C5.41867 0 6.42667 0.4 7.152 1.2C7.888 2 8.256 3.12533 8.256 4.576V7.072C8.256 8.56533 7.888 9.70133 7.152 10.48C6.42667 11.2587 5.41867 11.648 4.128 11.648C2.83733 11.648 1.824 11.2587 1.088 10.48C0.362667 9.70133 0 8.56533 0 7.072V4.576ZM4.128 9.728C4.512 9.728 4.832 9.66933 5.088 9.552C5.344 9.424 5.552 9.248 5.712 9.024C5.872 8.8 5.984 8.53333 6.048 8.224C6.112 7.91467 6.144 7.57333 6.144 7.2V4.448C6.144 4.096 6.10667 3.76533 6.032 3.456C5.95733 3.14667 5.84 2.88 5.68 2.656C5.52 2.432 5.312 2.256 5.056 2.128C4.8 1.98933 4.49067 1.92 4.128 1.92C3.76533 1.92 3.456 1.98933 3.2 2.128C2.944 2.256 2.736 2.432 2.576 2.656C2.416 2.88 2.29867 3.14667 2.224 3.456C2.14933 3.76533 2.112 4.096 2.112 4.448V7.2C2.112 7.57333 2.144 7.91467 2.208 8.224C2.272 8.53333 2.384 8.8 2.544 9.024C2.704 9.248 2.912 9.424 3.168 9.552C3.424 9.66933 3.744 9.728 4.128 9.728Z" transform="translate(18.8696 41.5759)" fill="#292A2E"/>
<path d="M6.56 8.8H2.752L2.208 11.2H0L2.672 0H6.64L9.312 11.2H7.104L6.56 8.8ZM3.2 6.784H6.096L4.8 1.056H4.512L3.2 6.784Z" transform="translate(4.34156 57.8)" fill="#292A2E"/>
<path d="M0 0H4.064C5.45067 0 6.48 0.325333 7.152 0.976C7.824 1.616 8.16 2.61333 8.16 3.968V7.232C8.16 8.58667 7.824 9.58933 7.152 10.24C6.48 10.88 5.45067 11.2 4.064 11.2H0V9.168H1.056V2.016H0V0ZM4.064 9.184C4.8 9.184 5.312 9.01333 5.6 8.672C5.89867 8.32 6.048 7.776 6.048 7.04V3.968C6.048 3.328 5.89867 2.84267 5.6 2.512C5.312 2.18133 4.8 2.016 4.064 2.016H3.168V9.184H4.064Z" transform="translate(18.8376 57.8)" fill="#292A2E"/>
<path d="M15.3208 0.189324C15.7411 -0.063108 16.2589 -0.063108 16.6792 0.189324L31.3208 8.98276C31.7411 9.23519 32 9.7017 32 10.2066V27.7934C32 28.2983 31.7411 28.7648 31.3208 29.0172L16.6792 37.8107C16.2589 38.0631 15.7411 38.0631 15.3208 37.8107L0.679236 29.0172C0.258923 28.7648 -3.67131e-08 28.2983 -3.67131e-08 27.7934V10.2066C-3.67131e-08 9.7017 0.258923 9.23519 0.679236 8.98276L15.3208 0.189324Z" fill="#F2CD0C"/>
<path d="M14.4567 0H0.529264C0.0586835 0 -0.176984 0.568951 0.155766 0.901702L14.0832 14.8291C14.416 15.1619 14.9849 14.9262 14.9849 14.4557V0.528205C14.9849 0.236485 14.7484 0 14.4567 0Z" transform="translate(5.45215 22.6213) scale(0.997597 1.0024) rotate(-45)" fill="#292A2E"/>
</svg>
