<svg width="32" height="72" viewBox="0 0 32 72" fill="none" xmlns="http://www.w3.org/2000/svg">
<g clip-path="url(#clip0)">
<path d="M4.79908 5.6C5.35108 5.6 5.85508 5.684 6.31108 5.852C6.76708 6.012 7.15908 6.24 7.48708 6.536C7.82308 6.832 8.08308 7.188 8.26708 7.604C8.45908 8.012 8.56708 8.46 8.59108 8.948C8.59908 9.116 8.60308 9.272 8.60308 9.416C8.60308 9.552 8.60308 9.684 8.60308 9.812C8.60308 9.94 8.60308 10.072 8.60308 10.208C8.60308 10.344 8.59908 10.492 8.59108 10.652C8.56708 11.148 8.46308 11.6 8.27908 12.008C8.09508 12.416 7.83908 12.768 7.51108 13.064C7.19108 13.36 6.80708 13.592 6.35908 13.76C5.91108 13.92 5.41108 14 4.85908 14H1.61908C1.53108 14 1.45508 13.968 1.39108 13.904C1.32708 13.84 1.29508 13.764 1.29508 13.676V5.924C1.29508 5.836 1.32708 5.76 1.39108 5.696C1.45508 5.632 1.53108 5.6 1.61908 5.6H4.79908ZM6.37108 8.9C6.32308 7.98 5.77908 7.52 4.73908 7.52H3.51508V12.08H4.79908C5.80708 12.08 6.33108 11.62 6.37108 10.7C6.37908 10.532 6.38308 10.376 6.38308 10.232C6.38308 10.08 6.38308 9.936 6.38308 9.8C6.38308 9.656 6.38308 9.512 6.38308 9.368C6.38308 9.224 6.37908 9.068 6.37108 8.9ZM17.979 12.08C18.067 12.08 18.143 12.112 18.207 12.176C18.271 12.24 18.303 12.316 18.303 12.404V13.676C18.303 13.764 18.271 13.84 18.207 13.904C18.143 13.968 18.067 14 17.979 14H12.291C12.203 14 12.127 13.968 12.063 13.904C11.999 13.84 11.967 13.764 11.967 13.676V5.924C11.967 5.836 11.999 5.76 12.063 5.696C12.127 5.632 12.203 5.6 12.291 5.6H17.883C17.971 5.6 18.047 5.632 18.111 5.696C18.175 5.76 18.207 5.836 18.207 5.924V7.196C18.207 7.284 18.175 7.36 18.111 7.424C18.047 7.488 17.971 7.52 17.883 7.52H14.187V8.816H17.619C17.707 8.816 17.783 8.848 17.847 8.912C17.911 8.976 17.943 9.052 17.943 9.14V10.412C17.943 10.5 17.911 10.576 17.847 10.64C17.783 10.704 17.707 10.736 17.619 10.736H14.187V12.08H17.979ZM27.1379 14C27.0019 14 26.8899 13.964 26.8019 13.892C26.7219 13.82 26.6699 13.764 26.6459 13.724L23.8979 9.62V13.676C23.8979 13.764 23.8659 13.84 23.8019 13.904C23.7379 13.968 23.6619 14 23.5739 14H22.0019C21.9139 14 21.8379 13.968 21.7739 13.904C21.7099 13.84 21.6779 13.764 21.6779 13.676V5.924C21.6779 5.836 21.7099 5.76 21.7739 5.696C21.8379 5.632 21.9139 5.6 22.0019 5.6H23.2499C23.3859 5.6 23.4939 5.636 23.5739 5.708C23.6619 5.78 23.7179 5.836 23.7419 5.876L26.4899 9.98V5.924C26.4899 5.836 26.5219 5.76 26.5859 5.696C26.6499 5.632 26.7259 5.6 26.8139 5.6H28.3859C28.4739 5.6 28.5499 5.632 28.6139 5.696C28.6779 5.76 28.7099 5.836 28.7099 5.924V13.676C28.7099 13.764 28.6779 13.84 28.6139 13.904C28.5499 13.968 28.4739 14 28.3859 14H27.1379ZM7.52664 24.08C7.61464 24.08 7.69064 24.112 7.75464 24.176C7.81864 24.24 7.85064 24.316 7.85064 24.404V25.676C7.85064 25.764 7.81864 25.84 7.75464 25.904C7.69064 25.968 7.61464 26 7.52664 26H1.97064C1.88264 26 1.80664 25.968 1.74264 25.904C1.67864 25.84 1.64664 25.764 1.64664 25.676V17.924C1.64664 17.836 1.67864 17.76 1.74264 17.696C1.80664 17.632 1.88264 17.6 1.97064 17.6H3.54264C3.63064 17.6 3.70664 17.632 3.77064 17.696C3.83464 17.76 3.86664 17.836 3.86664 17.924V24.08H7.52664ZM15.3171 17.6C15.4771 17.6 15.5971 17.644 15.6771 17.732C15.7651 17.82 15.8251 17.908 15.8571 17.996L18.4731 25.556C18.5051 25.636 18.5211 25.696 18.5211 25.736C18.5211 25.808 18.4931 25.872 18.4371 25.928C18.3891 25.976 18.3291 26 18.2571 26H16.7451C16.5851 26 16.4691 25.968 16.3971 25.904C16.3331 25.832 16.2931 25.764 16.2771 25.7L15.9411 24.704H12.7491L12.4131 25.7C12.3971 25.764 12.3531 25.832 12.2811 25.904C12.2171 25.968 12.1051 26 11.9451 26H10.4331C10.3611 26 10.2971 25.976 10.2411 25.928C10.1931 25.872 10.1691 25.808 10.1691 25.736C10.1691 25.696 10.1851 25.636 10.2171 25.556L12.8331 17.996C12.8651 17.908 12.9211 17.82 13.0011 17.732C13.0891 17.644 13.2131 17.6 13.3731 17.6H15.3171ZM13.3731 22.844H15.3171L14.3451 19.964L13.3731 22.844ZM21.8144 26C21.7264 26 21.6504 25.968 21.5864 25.904C21.5224 25.84 21.4904 25.764 21.4904 25.676V17.924C21.4904 17.836 21.5224 17.76 21.5864 17.696C21.6504 17.632 21.7264 17.6 21.8144 17.6H25.6784C26.2144 17.6 26.6664 17.676 27.0344 17.828C27.4024 17.972 27.6944 18.164 27.9104 18.404C28.1344 18.636 28.2944 18.904 28.3904 19.208C28.4864 19.504 28.5344 19.8 28.5344 20.096C28.5344 20.328 28.5064 20.532 28.4504 20.708C28.4024 20.876 28.3424 21.024 28.2704 21.152C28.1984 21.272 28.1224 21.372 28.0424 21.452C27.9704 21.524 27.9104 21.58 27.8624 21.62C28.1744 21.836 28.3904 22.088 28.5104 22.376C28.6384 22.656 28.7024 22.996 28.7024 23.396C28.7024 23.724 28.6544 24.044 28.5584 24.356C28.4624 24.668 28.3024 24.948 28.0784 25.196C27.8624 25.436 27.5784 25.632 27.2264 25.784C26.8744 25.928 26.4424 26 25.9304 26H21.8144ZM26.3024 20.144C26.3024 19.936 26.2384 19.772 26.1104 19.652C25.9904 19.524 25.8104 19.46 25.5704 19.46H23.7104V20.828H25.5704C25.8104 20.828 25.9904 20.768 26.1104 20.648C26.2384 20.52 26.3024 20.352 26.3024 20.144ZM23.7104 24.14H25.6904C25.9304 24.14 26.1224 24.072 26.2664 23.936C26.4104 23.792 26.4824 23.616 26.4824 23.408C26.4824 23.2 26.4104 23.028 26.2664 22.892C26.1224 22.748 25.9304 22.676 25.6904 22.676H23.7104V24.14Z" transform="translate(1 38)" fill="#292A2E"/>
<path d="M15.3208 0.189324C15.7411 -0.063108 16.2589 -0.063108 16.6792 0.189324L31.3208 8.98276C31.7411 9.23519 32 9.7017 32 10.2066V27.7934C32 28.2983 31.7411 28.7648 31.3208 29.0172L16.6792 37.8107C16.2589 38.0631 15.7411 38.0631 15.3208 37.8107L0.679236 29.0172C0.258923 28.7648 -3.67131e-08 28.2983 -3.67131e-08 27.7934V10.2066C-3.67131e-08 9.7017 0.258923 9.23519 0.679236 8.98276L15.3208 0.189324Z" fill="#292A2E"/>
<path d="M14.4567 0H0.529264C0.0586835 0 -0.176984 0.568951 0.155766 0.901702L14.0832 14.8291C14.416 15.1619 14.9849 14.9262 14.9849 14.4557V0.528205C14.9849 0.236485 14.7484 0 14.4567 0Z" transform="translate(5.45215 22.6213) scale(0.997597 1.0024) rotate(-45)" fill="#F2CD0C"/>
</g>
<defs>
<clipPath id="clip0">
<rect width="32" height="72" fill="white"/>
</clipPath>
</defs>
</svg>
